<svg width="21" height="20" viewBox="0 0 21 20" fill="none" xmlns="http://www.w3.org/2000/svg">
<path d="M13 9V5C13 3.93913 12.5786 2.92172 11.8284 2.17157C11.0783 1.42143 10.0609 1 9 1C7.93913 1 6.92172 1.42143 6.17157 2.17157C5.42143 2.92172 5 3.93913 5 5V9M2 7H16L17 19H1L2 7Z" stroke="#282828" stroke-width="2" stroke-linecap="round" stroke-linejoin="round"/>
<circle cx="15" cy="7" r="6" fill="#F47606"/>
<path d="M15.0058 10C16.1499 10 17 9.28992 17 8.3346C17 7.59316 16.5562 7.05418 15.8127 6.93156V6.88593C16.4092 6.70627 16.781 6.22148 16.781 5.56274C16.781 4.73574 16.121 4 15.0288 4C14.0086 4 13.1614 4.62167 13.1268 5.53992H13.8184C13.8444 4.95817 14.4035 4.61597 15.0173 4.61597C15.6686 4.61597 16.0893 5.00665 16.0893 5.59696C16.0893 6.21293 15.6023 6.61217 14.902 6.61217H14.4294V7.23954H14.902C15.7983 7.23954 16.2968 7.69011 16.2968 8.3346C16.2968 8.95342 15.7522 9.37262 14.9942 9.37262C14.3112 9.37262 13.7695 9.02471 13.7262 8.46008H13C13.0432 9.37833 13.8617 10 15.0058 10Z" fill="white"/>
</svg>
